<svg aria-hidden="true" style="position: absolute; width: 0; height: 0; overflow: hidden;" version="1.1" xmlns="http://www.w3.org/2000/svg" xmlns:xlink="http://www.w3.org/1999/xlink">
<defs>
<symbol id="icon-github" viewBox="0 0 32 32">
<path d="M16 3.2c-7.069 0-12.8 5.731-12.8 12.8 0 5.998 4.13 11.017 9.698 12.405-0.060-0.173-0.098-0.373-0.098-0.622v-2.188c-0.519 0-1.39 0-1.609 0-0.876 0-1.654-0.377-2.032-1.076-0.419-0.778-0.492-1.967-1.531-2.694-0.308-0.242-0.074-0.518 0.282-0.481 0.656 0.186 1.2 0.636 1.712 1.303 0.51 0.669 0.75 0.82 1.702 0.82 0.462 0 1.153-0.027 1.804-0.129 0.35-0.889 0.955-1.707 1.694-2.093-4.262-0.438-6.297-2.559-6.297-5.438 0-1.239 0.528-2.438 1.425-3.449-0.294-1.003-0.665-3.047 0.113-3.826 1.918 0 3.077 1.244 3.356 1.58 0.956-0.327 2.005-0.513 3.108-0.513 1.105 0 2.159 0.186 3.117 0.515 0.275-0.334 1.436-1.582 3.358-1.582 0.781 0.78 0.406 2.833 0.109 3.834 0.892 1.008 1.417 2.204 1.417 3.441 0 2.877-2.031 4.996-6.287 5.437 1.171 0.611 2.026 2.329 2.026 3.622v2.916c0 0.111-0.025 0.191-0.037 0.286 4.988-1.748 8.571-6.484 8.571-12.069 0-7.069-5.731-12.8-12.8-12.8z"></path>
</symbol>
<symbol id="icon-linkedin" viewBox="0 0 32 32">
<path fill="#0078d4" style="fill: var(--color1, #0078d4)" d="M16 2.667c-7.364 0-13.333 5.969-13.333 13.333s5.969 13.333 13.333 13.333 13.333-5.969 13.333-13.333-5.969-13.333-13.333-13.333z"></path>
<path fill="#000" style="fill: var(--color2, #000)" opacity="0.05" d="M20 23.333v-6c0-0.735-0.598-1.333-1.333-1.333s-1.333 0.598-1.333 1.333v6h-4v-11.333h4v0.685c0.693-0.445 1.501-0.685 2.333-0.685 2.389 0 4.333 1.944 4.333 4.333v7h-4zM8.667 23.333v-11.333h1.977c-1.146 0-1.977-0.841-1.977-2.001s0.845-1.999 2.007-1.999c1.131 0 1.969 0.835 1.993 1.986 0 1.169-0.845 2.014-2.008 2.014h2.008v11.333h-4z"></path>
<path fill="#000" style="fill: var(--color2, #000)" opacity="0.07" d="M20.333 23v-5.667c0-0.919-0.747-1.667-1.667-1.667s-1.667 0.748-1.667 1.667v5.667h-3.333v-10.667h3.333v1.023c0.727-0.651 1.675-1.023 2.667-1.023 2.206 0 4 1.794 4 4v6.667h-3.333zM9 23v-10.667h3.333v10.667h-3.333zM10.644 11.667c-0.953 0-1.644-0.701-1.644-1.667s0.704-1.666 1.674-1.666c0.957 0 1.639 0.682 1.659 1.659 0 0.973-0.705 1.674-1.675 1.674h-0.015z"></path>
<path fill="#fff" style="fill: var(--color3, #fff)" d="M9.333 12.667h2.667v10h-2.667v-10zM10.659 11.333h-0.015c-0.796 0-1.311-0.593-1.311-1.334 0-0.757 0.531-1.333 1.341-1.333 0.811 0 1.311 0.576 1.326 1.333 0 0.741-0.515 1.334-1.341 1.334zM23.333 16.333c0-2.025-1.641-3.667-3.667-3.667-1.241 0-2.337 0.619-3 1.563v-1.563h-2.667v10h2.667v-5.333c0-1.105 0.895-2 2-2s2 0.895 2 2v5.333h2.667c0 0 0-6.053 0-6.333z"></path>
</symbol>
</defs>
</svg>
