<svg aria-hidden="true" style="position: absolute; width: 0; height: 0; overflow: hidden;" version="1.1"
    xmlns="http://www.w3.org/2000/svg"
    xmlns:xlink="http://www.w3.org/1999/xlink">
    <defs>
        <symbol id="icon-film" viewBox="0 0 34 34">
            <path fill="none" stroke="#fff" style="stroke: var(--color1, #fff)" stroke-linejoin="round" stroke-linecap="round" stroke-miterlimit="4" stroke-width="2.6667" d="M26.427 2.667h-20.853c-1.605 0-2.907 1.301-2.907 2.907v20.853c0 1.605 1.301 2.907 2.907 2.907h20.853c1.605 0 2.907-1.301 2.907-2.907v-20.853c0-1.605-1.301-2.907-2.907-2.907z">
            </path>
            <path fill="none" stroke="#fff" style="stroke: var(--color1, #fff)" stroke-linejoin="round" stroke-linecap="round" stroke-miterlimit="4" stroke-width="2.6667" d="M9.333 2.667v26.667"></path>
            <path fill="none" stroke="#fff" style="stroke: var(--color1, #fff)" stroke-linejoin="round" stroke-linecap="round" stroke-miterlimit="4" stroke-width="2.6667" d="M22.667 2.667v26.667"></path>
            <path fill="none" stroke="#fff" style="stroke: var(--color1, #fff)" stroke-linejoin="round" stroke-linecap="round" stroke-miterlimit="4" stroke-width="2.6667" d="M2.667 16h26.667"></path>
            <path fill="none" stroke="#fff" style="stroke: var(--color1, #fff)" stroke-linejoin="round" stroke-linecap="round" stroke-miterlimit="4" stroke-width="2.6667" d="M2.667 9.333h6.667"></path>
            <path fill="none" stroke="#fff" style="stroke: var(--color1, #fff)" stroke-linejoin="round" stroke-linecap="round" stroke-miterlimit="4" stroke-width="2.6667" d="M2.667 22.667h6.667"></path>
            <path fill="none" stroke="#fff" style="stroke: var(--color1, #fff)" stroke-linejoin="round" stroke-linecap="round" stroke-miterlimit="4" stroke-width="2.6667" d="M22.667 22.667h6.667"></path>
            <path fill="none" stroke="#fff" style="stroke: var(--color1, #fff)" stroke-linejoin="round" stroke-linecap="round" stroke-miterlimit="4" stroke-width="2.6667" d="M22.667 9.333h6.667"></path>
        </symbol>
        <symbol id="icon-sun" viewBox="0 0 32 32">
            <path d="M16 9c-3.859 0-7 3.141-7 7s3.141 7 7 7 7-3.141 7-7c0-3.859-3.141-7-7-7zM16 21c-2.762 0-5-2.238-5-5s2.238-5 5-5 5 2.238 5 5-2.238 5-5 5zM16 7c0.552 0 1-0.448 1-1v-2c0-0.552-0.448-1-1-1s-1 0.448-1 1v2c0 0.552 0.448 1 1 1zM16 25c-0.552 0-1 0.448-1 1v2c0 0.552 0.448 1 1 1s1-0.448 1-1v-2c0-0.552-0.448-1-1-1zM23.777 9.635l1.414-1.414c0.391-0.391 0.391-1.023 0-1.414s-1.023-0.391-1.414 0l-1.414 1.414c-0.391 0.391-0.391 1.023 0 1.414s1.023 0.391 1.414 0zM8.223 22.365l-1.414 1.414c-0.391 0.391-0.391 1.023 0 1.414s1.023 0.391 1.414 0l1.414-1.414c0.391-0.392 0.391-1.023 0-1.414s-1.023-0.392-1.414 0zM7 16c0-0.552-0.448-1-1-1h-2c-0.552 0-1 0.448-1 1s0.448 1 1 1h2c0.552 0 1-0.448 1-1zM28 15h-2c-0.552 0-1 0.448-1 1s0.448 1 1 1h2c0.552 0 1-0.448 1-1s-0.448-1-1-1zM8.221 9.635c0.391 0.391 1.024 0.391 1.414 0s0.391-1.023 0-1.414l-1.414-1.414c-0.391-0.391-1.023-0.391-1.414 0s-0.391 1.023 0 1.414l1.414 1.414zM23.779 22.363c-0.392-0.391-1.023-0.391-1.414 0s-0.392 1.023 0 1.414l1.414 1.414c0.391 0.391 1.023 0.391 1.414 0s0.391-1.023 0-1.414l-1.414-1.414z"></path>
</symbol>
<symbol id="icon-moon" viewBox="0 0 32 32">
<path d="M21.866 21.447c-3.117 3.12-8.193 3.12-11.313 0s-3.12-8.195 0-11.314c0.826-0.824 1.832-1.453 2.989-1.863 0.365-0.128 0.768-0.035 1.039 0.237 0.274 0.273 0.366 0.677 0.237 1.039-0.784 2.211-0.25 4.604 1.391 6.245 1.638 1.639 4.031 2.172 6.245 1.391 0.362-0.129 0.767-0.036 1.039 0.237 0.273 0.271 0.365 0.676 0.236 1.039-0.408 1.157-1.038 2.164-1.863 2.989zM11.967 11.547c-2.34 2.34-2.34 6.147 0 8.486 2.5 2.501 6.758 2.276 8.937-0.51-2.247 0.141-4.461-0.671-6.109-2.318s-2.458-3.861-2.318-6.108c-0.18 0.141-0.35 0.29-0.51 0.451z"></path>
</symbol>
        <symbol id="icon-icon-heart" viewBox="0 0 34 32">
            <path d="M17.231 31.705l-2.412-2.412c-8.96-7.926-14.818-13.268-14.818-19.815 0-5.342 4.135-9.477 9.477-9.477 2.929 0 5.858 1.378 7.754 3.618 1.895-2.24 4.825-3.618 7.754-3.618 5.342 0 9.477 4.135 9.477 9.477 0 6.548-5.858 11.889-14.818 19.815l-2.412 2.412z">
            </path>
        </symbol>
        <symbol id="icon-search" viewBox="0 0 32 32">
            <path fill="none" stroke="#fff" style="stroke: var(--color1, #fff)" stroke-linejoin="round" stroke-linecap="round" stroke-miterlimit="4" stroke-width="2.6667" d="M14.667 25.333c5.891 0 10.667-4.776 10.667-10.667s-4.776-10.667-10.667-10.667c-5.891 0-10.667 4.776-10.667 10.667s4.776 10.667 10.667 10.667z"></path>
            <path fill="none" stroke="#fff" style="stroke: var(--color1, #fff)" stroke-linejoin="round" stroke-linecap="round" stroke-miterlimit="4" stroke-width="2.6667" d="M28 28.001l-5.8-5.8"></path>
        </symbol>

    </defs>
</svg>